<?xml version="1.0" encoding="utf-8"?>
<!-- Generator: Adobe Illustrator 21.1.0, SVG Export Plug-In . SVG Version: 6.00 Build 0)  -->
<svg version="1.1" id="Layer_1" xmlns="http://www.w3.org/2000/svg" xmlns:xlink="http://www.w3.org/1999/xlink" x="0px" y="0px"
	 viewBox="0 0 822 54.7" style="enable-background:new 0 0 822 54.7;" xml:space="preserve">
<style type="text/css">
	.st0{fill:none;stroke:#A7AAAC;stroke-width:0.5;stroke-miterlimit:10;}
	.st1{fill:none;stroke:#000000;stroke-miterlimit:10;}
	.st2{fill:none;}
	.st3{font-family:'ArialMT';}
	.st4{font-size:12px;}
	.st5{fill:#010101;}
	.st6{font-family:'NirmalaUI';}
	.st7{font-size:15px;}
</style>
<line class="st0" x1="430.6" y1="-223.6" x2="430.6" y2="-187.9"/>
<line class="st1" x1="403.4" y1="15.9" x2="737" y2="15.9"/>
<line class="st1" x1="403.1" y1="39.1" x2="739" y2="39.1"/>
<rect x="103" y="24.1" class="st2" width="266.4" height="21.3"/>
<rect x="400.8" y="22.6" class="st2" width="289.2" height="17.9"/>
<text transform="matrix(1.04 0 0 1.1 402 31.1355)" class="st3 st4">INDIAN INSTITUTE OF INFORMATION TEHNOLOGY KOTA</text>
<g>
	<polygon class="st5" points="341.3,39.8 342.3,36.6 347.8,36.6 346.5,39.8 	"/>
	<g>
		<polygon class="st5" points="350.7,11.7 356.4,11.7 348.1,35.5 342.8,35.5 		"/>
		<polygon class="st5" points="350.9,39.8 356.1,39.8 365.9,12.1 360.7,12.1 		"/>
		<polygon class="st5" points="360.2,39.8 365.3,39.8 375.1,12.5 370.1,12.5 		"/>
		<polygon class="st5" points="370.4,39.8 375.1,39.8 383.3,16.8 378.5,16.8 		"/>
		<polygon class="st5" points="377.2,12.5 375.9,16.3 385.9,16.3 387.2,12.5 		"/>
		<polygon class="st5" points="392.6,15.9 380.6,26.1 387.9,39.8 393.3,39.8 387.2,27.8 386.9,26.9 399.8,15.9 		"/>
	</g>
</g>
<line class="st1" x1="76" y1="16.8" x2="338.4" y2="16.8"/>
<line class="st1" x1="76" y1="40.6" x2="337.6" y2="40.6"/>
<rect x="76" y="21.8" class="st2" width="292" height="16"/>
<text transform="matrix(1.18 0 0 1 76 32.8835)" class="st6 st7">भारतीय सूचना प्रौद्योगिकी संस्थान कोटा</text>
</svg>
